<svg id="SvgjsSvg1001" width="288" height="288" xmlns="http://www.w3.org/2000/svg" version="1.1" xmlns:xlink="http://www.w3.org/1999/xlink" xmlns:svgjs="http://svgjs.com/svgjs"><defs id="SvgjsDefs1002"></defs><g id="SvgjsG1008"><svg xmlns="http://www.w3.org/2000/svg" width="288" height="288" fill="#920de9" enable-background="new 0 0 100 100" viewBox="0 0 100 100"><path fill-rule="evenodd" d="M75.6,40.5c11,0,19.9,9,19.9,20c0,11-9,20-20,20s-20-9-20-20c0-22.1,17.9-40,40-40  C95.5,20.5,82.4,25.4,75.6,40.5z M45.5,60.5c0,11-9,20-20,20s-20-9-20-20l0,0c0-22.1,17.9-40,40-40c0,0-13.1,4.9-19.9,20  C36.6,40.5,45.5,49.5,45.5,60.5z" clip-rule="evenodd" fill="#cca352" class="color000 svgShape"></path></svg></g></svg>