<svg xmlns="http://www.w3.org/2000/svg" width="297" height="105" viewBox="0 0 297 105"><style>.a{fill:#222222;}</style><polygon points="84.4 46 99.6 59.1 55.5 97.6 55.5 97.5 55.4 97.6 11.5 59.3 26.7 46.1 55.5 88.3 " class="a"/><polygon points="33.5 32.8 34.4 34.3 76.6 34.3 77.5 32.8 " class="a"/><polygon points="43.5 61.1 38.5 46.6 24.3 38.7 " class="a"/><polygon points="67.5 61.3 72.7 46.6 86.6 38.8 " class="a"/><path d="M55.5 13.2L18.1 30.1h13.4l2.8 4.3h42.2l2.8-4.3h13.4L55.5 13.2zM58.4 23.5l-2.9 1.5 -2.9-1.5v-2.9l2.9-1.5 2.9 1.5V23.5z" class="a"/><path d="M85.9 38.7H25.1l0.1 0.1 18.5 2.8L43.5 61.1l-2.4-2.8 13.7 16.8V56.9c0-0.3 0.3-0.6 0.6-0.6h0.3c0.3 0 0.6 0.3 0.6 0.6v18.3l11.4-14 -0.1 0.1L67.2 41.6l18.4-2.6L85.9 38.7zM55.5 53.4c-0.6 0-1.2-0.5-1.2-1.2s0.5-1.2 1.2-1.2c0.6 0 1.2 0.5 1.2 1.2S56.1 53.4 55.5 53.4zM55.5 48.4c-0.6 0-1.2-0.5-1.2-1.2s0.5-1.2 1.2-1.2c0.6 0 1.2 0.5 1.2 1.2S56.1 48.4 55.5 48.4zM55.5 43.2c-0.6 0-1.2-0.5-1.2-1.2s0.5-1.2 1.2-1.2c0.6 0 1.2 0.5 1.2 1.2S56.1 43.2 55.5 43.2z" class="a"/><path d="M145.7 46.7c0 7.8-4.9 12.4-13.4 12.4h-5.9v9.2h-8.7V35h14.6C140.8 35 145.7 39.3 145.7 46.7zM137.5 46.9c0-3.3-2-5-5.5-5h-5.5v10.2h5.5C135.4 52.1 137.5 50.3 137.5 46.9z" class="a"/><path d="M180.9 68.2l-4.8-9.2h-0.2 -6.3v9.2h-8.7V35h14.9c8.8 0 13.8 4.3 13.8 11.7 0 5-2.1 8.7-5.9 10.7l6.9 10.8H180.9zM169.7 52.1h6.3c3.5 0 5.5-1.8 5.5-5.2 0-3.3-2-5-5.5-5h-6.3V52.1z" class="a"/><path d="M240.1 51.6c0 9.7-7.7 17-17.9 17s-17.9-7.3-17.9-17c0-9.7 7.7-16.8 18-16.8S240.1 42 240.1 51.6zM213.1 51.6c0 5.4 4.2 9.6 9.1 9.6 5 0 9-4.2 9-9.6 0-5.4-4-9.5-9-9.5S213.1 46.2 213.1 51.6z" class="a"/><path d="M267.6 41.7c-2.1 0-3.5 0.8-3.5 2.3 0 5.5 17.5 2.4 17.5 14.3 0 6.8-6 10.2-13.4 10.2 -5.5 0-11.3-2-15.3-5.3l3.4-6.8c3.4 2.9 8.6 5 12 5 2.6 0 4.2-0.9 4.2-2.7 0-5.6-17.5-2.2-17.5-14 0-6.2 5.3-10.1 13.3-10.1 4.9 0 9.8 1.5 13.3 3.7l-3.3 6.9C274.8 43.2 270.3 41.7 267.6 41.7z" class="a"/></svg>
